<svg xmlns="http://www.w3.org/2000/svg" viewBox="0 0 1600 900" preserveAspectRatio="xMidYMid slice">
  <!-- 龍の荒れ果てた台地（ダーク和風）：血のように赤い空と黒煙、ひび割れた大地に残る巨大な龍の足跡、炎上し倒壊した五重塔・鳥居・家々、文明の残骸、舞い上がる火の粉 -->
  <defs>
    <linearGradient id="sky" x1="0" y1="0" x2="0" y2="1">
      <stop offset="0" stop-color="#080203"/>
      <stop offset=".45" stop-color="#2a0806"/>
      <stop offset=".7" stop-color="#5a1608"/>
      <stop offset="1" stop-color="#1a0503"/>
    </linearGradient>
    <linearGradient id="ground" x1="0" y1="0" x2="0" y2="1">
      <stop offset="0" stop-color="#140806"/>
      <stop offset="1" stop-color="#050202"/>
    </linearGradient>
    <radialGradient id="fire" cx=".5" cy=".7" r=".6">
      <stop offset="0" stop-color="#ffcf6a" stop-opacity=".9"/>
      <stop offset=".35" stop-color="#e2521d" stop-opacity=".6"/>
      <stop offset="1" stop-color="#8a1a0a" stop-opacity="0"/>
    </radialGradient>
    <radialGradient id="vig" cx=".5" cy=".5" r=".72">
      <stop offset=".45" stop-color="#000" stop-opacity="0"/>
      <stop offset="1" stop-color="#000" stop-opacity=".85"/>
    </radialGradient>
    <filter id="smoke" x="0" y="0" width="100%" height="100%">
      <feTurbulence type="fractalNoise" baseFrequency=".004 .009" numOctaves="4" seed="66"/>
      <feColorMatrix values="0 0 0 0 .06  0 0 0 0 .04  0 0 0 0 .04  1.6 0 0 0 -.55"/>
    </filter>
    <filter id="grain">
      <feTurbulence type="fractalNoise" baseFrequency=".85" numOctaves="2" stitchTiles="stitch"/>
      <feColorMatrix values="0 0 0 0 0  0 0 0 0 0  0 0 0 0 0  0 0 0 .22 0"/>
    </filter>
    <g id="flames">
      <ellipse cx="0" cy="-40" rx="120" ry="110" fill="url(#fire)"/>
      <path d="M-50 0 C-60 -50 -30 -70 -35 -110 C-10 -80 0 -60 -5 -30 C10 -70 30 -90 25 -140 C55 -100 60 -50 45 0 Z" fill="#e2521d" opacity=".85"/>
      <path d="M-25 0 C-30 -30 -10 -50 -12 -80 C5 -60 10 -40 8 -20 C18 -45 30 -60 28 -90 C45 -60 40 -25 30 0 Z" fill="#ffc24a" opacity=".85"/>
    </g>
    <g id="footprint">
      <!-- 三本爪の巨大な足跡（踏み抜かれた窪みの縁が赤く燻る） -->
      <ellipse cx="0" cy="-40" rx="140" ry="120" fill="#1a0805" opacity=".55"/>
      <path d="M-68 5 C-75 -15 -62 -28 -50 -28 L-112 -132 L-28 -42 L-16 -44 L0 -172 L16 -44 L28 -42 L112 -128 L50 -28 C64 -26 76 -12 68 8 C58 40 -58 40 -68 5 Z" fill="#050101" stroke="#a8341a" stroke-width="4" stroke-linejoin="round"/>
      <path d="M-68 5 C-75 -15 -62 -28 -50 -28 L-112 -132 L-28 -42 L-16 -44 L0 -172 L16 -44 L28 -42 L112 -128 L50 -28 C64 -26 76 -12 68 8 C58 40 -58 40 -68 5 Z" fill="none" stroke="#ff9a3a" stroke-width="1.2" opacity=".55" transform="scale(.9) translate(0 -4)"/>
    </g>
    <g id="ember"><circle r="2.5" fill="#ffb24a"/></g>
  </defs>
  <rect width="1600" height="900" fill="url(#sky)"/>
  <!-- 遠景：崩れた都の影 -->
  <path d="M0 520 L60 520 L60 470 L110 470 L110 500 L170 500 L170 440 L200 420 L230 440 L230 510 L320 510 L320 480 L380 480 L400 450 L420 480 L480 480 L480 520 L600 520 L600 500 L650 470 L700 500 L700 520 L900 520 L920 490 L980 490 L1000 460 L1020 490 L1100 490 L1100 510 L1200 510 L1230 470 L1260 510 L1360 510 L1360 460 L1400 450 L1420 480 L1500 480 L1500 520 L1600 520 L1600 600 L0 600 Z" fill="#12050404"/>
  <path d="M0 520 L60 520 L60 470 L110 470 L110 500 L170 500 L170 440 L200 420 L230 440 L230 510 L320 510 L320 480 L380 480 L400 450 L420 480 L480 480 L480 520 L600 520 L600 500 L650 470 L700 500 L700 520 L900 520 L920 490 L980 490 L1000 460 L1020 490 L1100 490 L1100 510 L1200 510 L1230 470 L1260 510 L1360 510 L1360 460 L1400 450 L1420 480 L1500 480 L1500 520 L1600 520 L1600 600 L0 600 Z" fill="#140605"/>
  <use href="#flames" transform="translate(420 520) scale(.8)"/>
  <use href="#flames" transform="translate(1180 510) scale(.7)"/>
  <!-- 黒煙 -->
  <rect width="1600" height="620" filter="url(#smoke)" opacity=".9"/>
  <!-- 台地 -->
  <path d="M0 590 L260 560 L520 585 L800 560 L1080 590 L1340 565 L1600 585 L1600 900 L0 900 Z" fill="url(#ground)"/>
  <!-- 大地の亀裂（溶岩の光） -->
  <g fill="none" stroke="#c9461a" stroke-width="3" opacity=".7">
    <path d="M120 900 L180 820 L160 760 L230 700 L220 650"/>
    <path d="M1480 900 L1420 830 L1450 770 L1380 720 L1400 660"/>
    <path d="M700 900 L730 840 L700 800 L760 760"/>
  </g>
  <g fill="none" stroke="#ff9a3a" stroke-width="1" opacity=".6">
    <path d="M120 900 L180 820 L160 760 L230 700 L220 650"/><path d="M1480 900 L1420 830 L1450 770 L1380 720 L1400 660"/>
  </g>
  <!-- 倒壊して燃える五重塔 -->
  <g transform="translate(300 650) rotate(-14)">
    <rect x="-40" y="-260" width="80" height="260" fill="#0a0303"/>
    <g fill="#0a0303">
      <path d="M-120 -40 L120 -40 L80 -60 L-80 -60 Z"/><path d="M-110 -100 L110 -100 L72 -118 L-72 -118 Z"/><path d="M-100 -160 L100 -160 L64 -176 L-64 -176 Z"/><path d="M-90 -220 L90 -220 L56 -234 L-56 -234 Z"/>
    </g>
    <path d="M0 -260 V-330" stroke="#0a0303" stroke-width="6"/>
    <g fill="#0a0303"><circle cx="0" cy="-290" r="8"/><circle cx="0" cy="-310" r="7"/></g>
  </g>
  <use href="#flames" transform="translate(300 640)"/>
  <!-- 折れて燃える鳥居 -->
  <g transform="translate(1270 660)">
    <path d="M-150 -260 Q0 -280 90 -262 L96 -242 Q0 -258 -156 -240 Z" fill="#2a0806" transform="rotate(12 -30 -250)"/>
    <rect x="-120" y="-240" width="28" height="240" fill="#200605"/>
    <path d="M80 0 L80 -120 L108 -140 L108 0 Z" fill="#200605"/>
    <path d="M100 -2 L150 -30 L230 -8 L220 6 Z" fill="#200605"/>
  </g>
  <use href="#flames" transform="translate(1250 650) scale(.9)"/>
  <!-- 崩れた家の残骸 -->
  <g fill="#080303">
    <path d="M560 690 L610 650 L660 680 L700 640 L740 690 Z"/><path d="M880 700 L930 670 L990 700 Z"/>
    <path d="M1000 720 L1040 690 L1060 720 Z"/>
  </g>
  <path d="M600 660 L700 610" stroke="#080303" stroke-width="8"/>
  <path d="M900 690 L960 640" stroke="#080303" stroke-width="7"/>
  <!-- 巨大な龍の足跡 -->
  <use href="#footprint" transform="translate(620 830) rotate(-10) scale(.9)"/>
  <use href="#footprint" transform="translate(960 770) rotate(8) scale(.7)"/>
  
  <!-- 舞い上がる火の粉 -->
  <g opacity=".85">
    <use href="#ember" x="340" y="420"/><use href="#ember" x="380" y="360"/><use href="#ember" x="300" y="300"/><use href="#ember" x="460" y="480"/>
    <use href="#ember" x="1200" y="420"/><use href="#ember" x="1260" y="360"/><use href="#ember" x="1150" y="300"/><use href="#ember" x="820" y="380"/>
    <use href="#ember" x="700" y="460"/><use href="#ember" x="960" y="330"/><use href="#ember" x="540" y="260"/><use href="#ember" x="1060" y="240"/>
  </g>
  <rect width="1600" height="900" filter="url(#grain)"/>
  <rect width="1600" height="900" fill="url(#vig)"/>
</svg>
